<?xml version="1.0" standalone="no"?>
<!DOCTYPE svg PUBLIC "-//W3C//DTD SVG 20010904//EN"
 "http://www.w3.org/TR/2001/REC-SVG-20010904/DTD/svg10.dtd">
<svg version="1.0" xmlns="http://www.w3.org/2000/svg"
 width="500.000000pt" height="500.000000pt" viewBox="0 0 500.000000 500.000000"
 preserveAspectRatio="xMidYMid meet">
<metadata>
Created by potrace 1.11, written by Peter Selinger 2001-2013
</metadata>
<g transform="translate(0.000000,500.000000) scale(0.100000,-0.100000)"
fill="#000000" stroke="none">
<path d="M2102 4725 c-29 -8 -66 -22 -83 -31 -52 -26 -116 -101 -141 -162
l-23 -57 0 -645 0 -645 23 -58 c31 -76 103 -148 179 -179 57 -23 62 -23 448
-23 386 0 391 0 448 23 76 31 148 103 179 179 l23 58 0 645 0 645 -23 58 c-31
76 -103 148 -179 179 -57 22 -67 23 -428 25 -297 2 -380 -1 -423 -12z m673
-350 l25 -24 0 -521 0 -521 -25 -24 -24 -25 -246 0 -246 0 -24 25 -25 24 0
521 0 521 25 24 24 25 246 0 246 0 24 -25z"/>
<path d="M160 3830 l0 -900 180 0 180 0 0 375 0 375 310 0 310 0 0 -375 0
-375 180 0 180 0 0 900 0 900 -180 0 -180 0 0 -355 0 -355 -310 0 -310 0 0
355 0 355 -180 0 -180 0 0 -900z"/>
<path d="M3866 4623 c-19 -60 -146 -452 -281 -873 -135 -421 -250 -777 -255
-793 l-9 -27 186 2 186 3 49 165 c26 91 53 182 59 203 l10 37 292 0 293 0 58
-205 59 -205 193 0 193 0 -9 28 c-5 15 -120 371 -255 792 -135 421 -262 813
-281 873 l-36 107 -208 0 -208 0 -36 -107z m339 -620 l92 -318 -93 -3 c-51 -1
-137 -1 -192 0 l-98 3 95 322 c52 177 97 320 99 318 3 -3 46 -148 97 -322z"/>
<path d="M4305 2673 c-16 -2 -79 -19 -140 -38 -60 -18 -131 -36 -156 -39 -25
-3 -66 -14 -91 -25 -51 -22 -225 -61 -273 -61 -35 0 -113 -26 -135 -44 -8 -8
-28 -16 -44 -20 -22 -6 -32 -3 -43 14 -19 27 -74 27 -98 0 -10 -11 -27 -20
-37 -20 -10 0 -33 -7 -50 -16 -23 -12 -47 -15 -84 -11 -33 3 -59 1 -70 -7 -11
-7 -64 -21 -119 -30 -55 -10 -113 -22 -130 -26 -16 -5 -50 -12 -75 -16 -25 -3
-63 -13 -85 -21 -22 -8 -85 -17 -139 -19 -85 -3 -102 -7 -122 -25 -18 -17 -38
-23 -81 -24 -32 -2 -65 -5 -73 -9 -16 -6 -76 -16 -241 -40 -53 -8 -112 -22
-130 -32 -20 -11 -57 -18 -89 -19 -32 -1 -81 -11 -115 -24 -33 -13 -73 -25
-90 -28 -16 -3 -36 -10 -43 -16 -9 -7 -16 -7 -24 1 -18 18 -88 15 -93 -3 -16
-49 -13 -47 -41 -29 -24 16 -29 16 -78 1 -29 -10 -69 -17 -90 -17 -20 0 -49
-6 -64 -14 -67 -35 -154 -57 -182 -47 -20 7 -39 5 -67 -4 -21 -8 -49 -14 -63
-15 -14 0 -33 -9 -43 -20 -16 -19 -19 -19 -39 -6 -25 18 -58 5 -58 -23 0 -25
-18 -38 -62 -46 -36 -7 -38 -6 -38 19 0 23 -4 26 -32 26 -18 0 -42 -7 -52 -15
-11 -8 -36 -15 -55 -15 -47 0 -141 -53 -141 -80 0 -29 16 -33 73 -16 29 8 76
17 106 20 29 3 60 11 69 18 8 7 34 14 56 14 72 3 180 15 201 23 52 21 100 32
223 51 73 11 152 27 175 35 23 8 53 15 66 15 24 0 91 16 126 30 11 5 38 11 60
15 22 4 59 11 83 16 98 21 142 29 224 39 48 5 109 18 135 29 27 10 84 21 127
25 75 7 124 17 241 52 28 8 75 17 105 20 30 3 64 9 75 14 11 5 38 11 60 14 73
9 110 18 145 34 19 9 71 19 115 22 44 4 105 16 137 28 34 12 96 23 160 27 78
6 115 13 151 31 29 14 58 22 71 18 12 -3 46 4 76 16 32 13 64 19 78 15 13 -3
29 -2 35 3 15 12 118 33 177 37 25 1 72 12 105 24 32 11 82 21 110 21 28 0 59
6 70 13 25 18 104 37 148 37 18 0 42 7 53 15 10 8 35 19 54 25 19 5 59 25 88
45 71 46 91 45 60 -5 -15 -24 -3 -38 20 -24 20 13 26 36 18 70 -7 25 -22 28
-101 17z"/>
<path d="M4250 2405 c-19 -7 -52 -14 -72 -14 -39 -1 -68 -28 -68 -64 0 -12 -6
-17 -17 -15 -14 3 -18 13 -18 42 0 46 -13 54 -45 28 -19 -15 -22 -24 -16 -54
3 -19 15 -43 26 -53 17 -15 24 -16 46 -6 23 10 34 7 90 -24 35 -20 64 -42 64
-50 0 -21 60 -85 79 -85 22 0 61 41 61 63 0 9 -8 49 -19 89 -10 40 -22 91 -27
113 -10 46 -28 52 -84 30z"/>
<path d="M3900 2315 c-12 -11 -27 -12 -80 -5 -91 13 -194 -17 -269 -77 l-23
-19 56 -42 c38 -29 56 -50 56 -65 1 -57 14 -135 27 -161 8 -15 18 -62 23 -105
4 -42 13 -89 20 -106 20 -50 41 -158 35 -184 -4 -14 1 -34 12 -50 11 -16 20
-53 23 -101 5 -71 4 -76 -19 -96 -22 -19 -24 -25 -14 -47 18 -38 58 -40 118
-6 51 29 53 29 96 14 41 -15 47 -14 107 7 34 12 68 28 74 35 7 9 3 44 -17 125
-15 62 -31 121 -36 130 -16 30 -21 121 -11 203 9 75 8 82 -14 122 -13 23 -29
45 -34 48 -6 4 -28 -8 -50 -27 -21 -18 -57 -46 -80 -63 -22 -16 -49 -39 -60
-49 -18 -18 -21 -18 -45 -2 -27 18 -34 46 -11 46 8 0 31 16 52 35 20 19 44 35
53 35 24 0 121 94 121 116 0 11 -7 47 -16 79 -10 39 -13 78 -9 111 5 46 3 55
-20 83 -30 34 -44 38 -65 16z"/>
<path d="M3344 2225 c-11 -8 -45 -16 -76 -18 -32 -2 -68 -11 -83 -21 l-27 -18
25 -26 c14 -15 33 -43 41 -63 8 -20 27 -44 41 -53 20 -13 25 -25 25 -57 0 -22
10 -59 22 -82 13 -27 22 -63 22 -99 1 -45 7 -62 25 -82 13 -14 28 -23 32 -20
17 10 10 220 -8 266 -9 23 -17 63 -17 88 -1 40 5 54 42 102 23 30 42 59 42 65
0 12 -44 33 -68 32 -9 0 -26 -7 -38 -14z"/>
<path d="M2750 2119 c-38 -6 -72 -17 -83 -28 -16 -15 -26 -16 -74 -8 -50 9
-58 8 -72 -10 -9 -11 -24 -23 -33 -26 -30 -10 -20 -35 18 -47 62 -21 157 -95
193 -150 18 -28 58 -78 89 -111 53 -57 57 -60 91 -54 51 10 88 31 94 55 4 14
12 21 24 18 25 -4 30 -61 8 -80 -34 -27 -85 -78 -85 -83 0 -15 67 -105 116
-155 68 -70 160 -173 203 -227 34 -43 65 -55 167 -66 37 -4 46 -1 78 30 34 33
36 39 36 97 0 44 -6 69 -20 91 -18 27 -37 82 -54 159 -8 33 -85 117 -161 176
-41 31 -69 68 -123 158 -57 95 -80 123 -120 150 -27 18 -54 44 -60 57 -24 53
-108 72 -232 54z m552 -625 c-5 -25 -3 -26 23 -20 78 20 87 20 83 1 -2 -11
-15 -21 -33 -25 -17 -4 -65 -15 -108 -25 -70 -17 -79 -17 -93 -3 -14 14 -11
19 28 56 31 31 51 42 74 42 28 0 31 -2 26 -26z"/>
<path d="M4186 2081 c-4 -5 -9 -45 -13 -88 -5 -66 -10 -83 -34 -111 -16 -18
-29 -37 -29 -42 0 -15 107 -131 150 -162 l39 -29 20 23 c27 28 27 34 -13 158
-78 240 -99 285 -120 251z"/>
<path d="M2015 1955 c-33 -14 -61 -25 -62 -25 -2 0 -3 -6 -3 -13 0 -7 13 -20
29 -30 21 -12 36 -34 51 -75 11 -31 25 -66 30 -77 5 -11 10 -48 12 -82 3 -42
10 -69 23 -83 21 -24 35 -26 35 -6 0 19 6 22 63 30 46 7 48 7 38 -13 -6 -11
-11 -29 -11 -40 0 -21 -27 -41 -56 -41 -9 0 -23 -8 -30 -17 -18 -23 -18 -141
-1 -162 12 -14 21 -40 57 -163 17 -57 3 -135 -37 -201 -49 -81 -36 -89 70 -38
141 67 256 196 257 287 0 17 7 51 16 75 15 42 12 109 -4 109 -5 0 -24 -16 -43
-36 -38 -40 -98 -71 -144 -74 -53 -4 -57 -2 -45 20 14 25 5 40 -23 40 -36 0
-6 17 51 29 73 15 122 37 122 55 0 9 13 22 29 30 33 17 41 34 41 81 0 60 -82
231 -138 287 -20 20 -47 50 -60 66 -16 22 -34 32 -63 37 -23 4 -56 15 -73 25
-52 30 -68 30 -131 5z"/>
<path d="M1771 1909 c-81 -54 -231 -199 -231 -223 0 -17 6 -18 58 -13 32 2 72
12 89 21 58 29 182 208 169 242 -8 21 -18 18 -85 -27z"/>
<path d="M2640 1781 c0 -11 5 -23 10 -26 6 -3 10 -21 10 -39 0 -17 5 -37 12
-44 8 -8 8 -15 0 -25 -18 -21 -5 -70 51 -185 32 -67 47 -111 44 -125 -3 -12
-11 -42 -17 -67 -6 -25 -10 -70 -7 -100 4 -58 -9 -91 -46 -119 -10 -7 -15 -17
-10 -22 13 -13 83 -12 133 1 25 6 70 14 100 18 55 7 55 7 58 43 4 45 -17 69
-61 69 -28 0 -36 7 -59 50 -24 42 -28 62 -28 125 0 58 -6 87 -25 131 -14 32
-30 89 -36 128 -14 88 -21 105 -61 161 -35 47 -68 59 -68 26z"/>
<path d="M891 1724 c-27 -34 -26 -42 2 -53 14 -6 39 -41 70 -99 39 -76 47 -99
47 -145 0 -39 6 -61 20 -79 14 -18 16 -28 8 -36 -17 -17 -18 -63 -2 -86 8 -11
14 -30 14 -42 0 -12 7 -24 15 -28 11 -4 15 1 15 18 0 35 24 51 44 30 9 -9 15
-19 14 -23 -2 -3 -14 -28 -26 -56 -12 -27 -27 -58 -32 -68 -6 -10 -8 -22 -4
-28 7 -12 53 -197 54 -216 0 -7 -18 -22 -41 -33 -36 -19 -40 -24 -34 -48 14
-55 39 -65 83 -33 15 10 44 24 64 30 20 7 49 27 63 44 14 18 46 56 70 85 33
41 48 72 64 132 25 91 30 213 13 288 -7 28 -17 76 -23 105 -13 62 -43 114 -69
122 -10 3 -22 15 -25 26 -4 11 -34 49 -67 85 -53 57 -65 64 -88 59 -20 -4 -29
-2 -33 9 -4 9 -18 16 -32 16 -14 0 -53 11 -87 25 -34 14 -65 25 -69 25 -4 0
-17 -12 -28 -26z m290 -117 c-13 -13 -26 -3 -16 12 3 6 11 8 17 5 6 -4 6 -10
-1 -17z"/>
<path d="M1803 1709 c-11 -19 -37 -41 -68 -56 -27 -13 -66 -33 -84 -43 -19
-11 -51 -26 -71 -34 l-37 -15 -7 -100 c-5 -70 -3 -107 5 -123 6 -12 11 -46 11
-77 0 -50 3 -60 39 -102 24 -29 51 -50 69 -54 25 -6 29 -10 24 -33 -8 -41 42
-111 103 -144 67 -37 265 -77 287 -58 31 25 18 54 -53 118 -61 54 -69 66 -74
104 -17 154 -30 236 -39 258 -6 14 -12 44 -14 67 -2 23 -10 55 -18 72 -10 19
-16 59 -17 108 -2 136 -21 173 -56 112z"/>
<path d="M741 1694 c-26 -18 -47 -24 -89 -24 -55 0 -55 0 -120 -67 l-64 -68
16 -45 c9 -25 16 -55 16 -68 0 -13 4 -31 9 -41 6 -10 11 -63 12 -119 1 -56 5
-106 9 -112 4 -7 21 1 45 20 21 16 42 30 46 30 5 0 45 32 90 70 51 44 90 70
104 70 24 0 24 1 21 88 -2 48 -11 114 -21 146 -11 39 -15 74 -11 103 5 37 3
43 -12 42 -9 0 -32 -12 -51 -25z"/>
<path d="M4421 1648 c-11 -24 -28 -69 -36 -100 -18 -65 -48 -108 -75 -108 -11
0 -24 -9 -30 -19 -5 -11 -20 -21 -32 -23 -17 -2 -24 -11 -26 -32 -6 -46 9 -51
82 -27 41 13 91 21 135 21 91 0 102 10 88 82 -5 29 -11 78 -12 108 -2 59 -36
140 -59 140 -7 0 -23 -19 -35 -42z"/>
<path d="M422 1634 c-46 -27 -54 -49 -21 -59 34 -11 99 61 71 79 -5 3 -27 -6
-50 -20z"/>
<path d="M801 1280 c-25 -28 -50 -50 -56 -50 -6 0 -22 -12 -36 -26 -13 -15
-36 -32 -50 -38 -14 -6 -46 -30 -72 -52 l-47 -41 16 -32 c8 -17 22 -70 29
-117 19 -113 21 -120 62 -178 l35 -49 -25 -19 c-60 -43 -70 -55 -64 -71 10
-26 55 -32 106 -14 25 8 73 18 106 21 33 4 90 19 127 34 l68 27 -7 55 c-3 30
-10 63 -14 72 -5 9 -9 28 -9 41 0 13 -8 35 -19 48 -13 18 -20 50 -25 124 -5
81 -11 104 -28 122 -18 19 -20 30 -15 74 6 49 -13 119 -32 119 -3 0 -26 -23
-50 -50z m104 -551 c4 -11 4 -23 0 -27 -7 -7 -25 17 -25 36 0 20 18 14 25 -9z"/>
<path d="M4605 1248 c-33 -10 -80 -26 -105 -35 -25 -8 -61 -17 -80 -18 -91 -8
-207 -28 -231 -41 -16 -8 -48 -14 -73 -14 -46 0 -135 -16 -171 -30 -11 -5 -46
-11 -77 -14 -32 -3 -83 -16 -114 -27 -39 -15 -68 -19 -94 -15 -26 4 -58 -1
-108 -19 -40 -14 -78 -25 -85 -25 -7 0 -31 -15 -53 -33 -45 -39 -76 -57 -98
-57 -21 0 -20 19 0 41 26 29 9 38 -43 23 -92 -28 -138 -37 -180 -35 -23 1 -59
-5 -80 -14 -21 -9 -49 -13 -62 -10 -16 4 -36 -2 -63 -20 -33 -22 -53 -27 -123
-30 -67 -2 -90 -7 -111 -24 -17 -13 -41 -21 -68 -21 -29 0 -56 -10 -96 -35
-58 -37 -94 -44 -104 -20 -7 19 -34 19 -80 0 -20 -9 -41 -13 -46 -10 -5 3 -25
-4 -44 -16 -24 -14 -46 -19 -64 -16 -48 10 -153 -31 -194 -76 -45 -48 -74 -46
-64 4 6 30 5 31 -22 24 -15 -3 -54 -10 -87 -15 -33 -5 -91 -16 -130 -24 -38
-9 -86 -16 -106 -16 -20 0 -58 -7 -85 -15 -27 -8 -59 -15 -71 -15 -32 0 -29
-28 2 -36 14 -4 24 -11 22 -18 -6 -19 -52 -18 -108 3 -68 26 -99 26 -132 1
-15 -12 -28 -20 -29 -19 -2 0 -23 -4 -48 -11 -25 -7 -70 -14 -100 -17 -106 -8
-115 -9 -140 -20 -14 -5 -50 -16 -80 -23 -145 -33 -170 -43 -170 -67 0 -13 5
-32 11 -42 11 -16 14 -17 41 -3 17 8 55 18 86 22 32 5 84 16 117 24 33 9 74
16 90 16 17 0 48 7 70 15 22 8 58 14 80 15 22 0 57 9 78 20 24 13 56 20 91 20
30 0 58 5 61 10 3 6 19 10 35 10 16 0 32 4 35 10 3 6 21 10 40 10 18 0 66 6
106 14 41 8 121 19 179 26 58 6 121 18 140 25 39 16 218 55 251 55 11 0 35 7
53 15 17 8 79 22 136 30 143 19 172 26 195 41 11 8 42 14 70 14 54 1 159 23
178 38 7 5 44 15 82 22 39 7 95 19 125 28 30 8 73 17 95 19 22 2 53 7 70 13
16 5 66 16 110 25 44 8 103 19 130 25 86 16 118 21 185 27 36 3 88 15 115 25
28 11 73 22 100 24 28 2 74 8 103 14 28 5 73 14 100 18 26 5 58 14 72 22 13 7
72 19 130 26 58 7 141 22 185 35 44 12 105 24 135 26 30 3 59 9 65 14 5 5 28
9 51 9 22 0 56 5 74 11 30 11 32 14 27 46 -6 34 -23 64 -36 62 -3 -1 -33 -10
-66 -21z"/>
<path d="M1320 569 c0 -5 5 -7 10 -4 6 3 10 8 10 11 0 2 -4 4 -10 4 -5 0 -10
-5 -10 -11z"/>
</g>
</svg>
